#Comment line ignore any data following # character 
#Hierarchical Translation and Rotation (.htr) file 
[Header]	
#Header keywords are followed by a single value 
FileType HTR		#Single word string
DataType HTRS		#Translation followed by rotation and scale data
FileVersion 1		#integer
NumSegments 84		#integer
NumFrames 2		#integer
DataFrameRate 30		#integer, data frame rate in this file
EulerRotationOrder ZYX
CalibrationUnits mm
RotationUnits Degrees
GlobalAxisofGravity Y
BoneLengthAxis Y
ScaleFactor 1.00
[SegmentNames&Hierarchy]
#CHILD	PARENT
MASTER GLOBAL
root MASTER
chest root
L_mid_tent01 root
R_mid_tent01 root
spine01 root
Bip01_Neck chest
L_humerus chest
R_humerus chest
weapon_bone chest
Bip01_Head Bip01_Neck
eye_left_bone Bip01_Head
eye_right_bone Bip01_Head
L_forearm L_humerus
L_front_hand L_forearm
L_weapon_bone L_forearm
L_front_hand01_01 L_front_hand
L_front_hand02_01 L_front_hand
L_front_hand03_01 L_front_hand
L_front_hand01_02 L_front_hand01_01
L_front_hand02_02 L_front_hand02_01
L_front_hand03_02 L_front_hand03_01
R_forearm R_humerus
R_front_hand R_forearm
R_weapon_bone R_forearm
R_front_hand01_01 R_front_hand
R_front_hand02_01 R_front_hand
R_front_hand03_01 R_front_hand
R_front_hand01_02 R_front_hand01_01
R_front_hand02_02 R_front_hand02_01
R_front_hand03_02 R_front_hand03_01
null_rope01_connect L_mid_tent01
Rope1_Seg01 null_rope01_connect
Rope1_Seg02 Rope1_Seg01
Rope1_Seg03 Rope1_Seg02
Rope1_Seg04 Rope1_Seg03
Rope1_Seg05 Rope1_Seg04
Rope1_Seg06 Rope1_Seg05
Rope1_Seg07 Rope1_Seg06
Rope1_Seg09 Rope1_Seg07
L_mid_hand01 Rope1_Seg09
L_mid_hand02 Rope1_Seg09
L_mid_hand03 Rope1_Seg09
null_rope02_connect R_mid_tent01
Rope2_Seg01 null_rope02_connect
Rope2_Seg02 Rope2_Seg01
Rope2_Seg03 Rope2_Seg02
Rope2_Seg04 Rope2_Seg03
Rope2_Seg05 Rope2_Seg04
Rope2_Seg06 Rope2_Seg05
Rope2_Seg07 Rope2_Seg06
Rope2_Seg09 Rope2_Seg07
R_mid_hand01 Rope2_Seg09
R_mid_hand02 Rope2_Seg09
R_mid_hand03 Rope2_Seg09
spine02 spine01
spine03 spine02
pelvis spine03
null_rope03_connect pelvis
null_rope04_connect pelvis
Rope3_Seg01 null_rope03_connect
Rope3_Seg02 Rope3_Seg01
Rope3_Seg03 Rope3_Seg02
Rope3_Seg04 Rope3_Seg03
Rope3_Seg05 Rope3_Seg04
Rope3_Seg06 Rope3_Seg05
Rope3_Seg07 Rope3_Seg06
Rope3_Seg08 Rope3_Seg07
Rope3_Seg09 Rope3_Seg08
R_rear_hand01 Rope3_Seg09
R_rear_hand02 Rope3_Seg09
R_rear_hand03 Rope3_Seg09
Rope4_Seg01 null_rope04_connect
Rope4_Seg02 Rope4_Seg01
Rope4_Seg03 Rope4_Seg02
Rope4_Seg04 Rope4_Seg03
Rope4_Seg05 Rope4_Seg04
Rope4_Seg06 Rope4_Seg05
Rope4_Seg07 Rope4_Seg06
Rope4_Seg08 Rope4_Seg07
Rope4_Seg09 Rope4_Seg08
L_rear_hand01 Rope4_Seg09
L_rear_hand02 Rope4_Seg09
L_rear_hand03 Rope4_Seg09
[BasePosition]
#SegmentName Tx, Ty, Tz, Rx, Ry, Rz, BoneLength
MASTER 0.000000 0.000000 0.000000 -90.000000 0.000000 0.000000 10.000000 
root 0.000000 0.000000 0.000000 0.000000 0.000000 0.000000 10.000000 
chest 0.000000 0.000000 0.000000 0.000000 0.000000 0.000000 10.000000 
L_mid_tent01 0.000000 0.000000 0.000000 0.000000 0.000000 0.000000 10.000000 
R_mid_tent01 0.000000 0.000000 0.000000 0.000000 0.000000 0.000000 10.000000 
spine01 0.000000 0.000000 0.000000 0.000000 0.000000 0.000000 10.000000 
Bip01_Neck 0.000000 0.000000 0.000000 0.000000 0.000000 0.000000 10.000000 
L_humerus 0.000000 0.000000 0.000000 0.000000 0.000000 0.000000 10.000000 
R_humerus 0.000000 0.000000 0.000000 0.000000 0.000000 0.000000 10.000000 
weapon_bone 0.000000 0.000000 0.000000 0.000000 0.000000 0.000000 10.000000 
Bip01_Head 0.000000 0.000000 0.000000 0.000000 0.000000 0.000000 10.000000 
eye_left_bone 0.000000 0.000000 0.000000 0.000000 0.000000 0.000000 10.000000 
eye_right_bone 0.000000 0.000000 0.000000 0.000000 0.000000 0.000000 10.000000 
L_forearm 0.000000 0.000000 0.000000 0.000000 0.000000 0.000000 10.000000 
L_front_hand 0.000000 0.000000 0.000000 0.000000 0.000000 0.000000 10.000000 
L_weapon_bone 0.000000 0.000000 0.000000 0.000000 0.000000 0.000000 10.000000 
L_front_hand01_01 0.000000 0.000000 0.000000 0.000000 0.000000 0.000000 10.000000 
L_front_hand02_01 0.000000 0.000000 0.000000 0.000000 0.000000 0.000000 10.000000 
L_front_hand03_01 0.000000 0.000000 0.000000 0.000000 0.000000 0.000000 10.000000 
L_front_hand01_02 0.000000 0.000000 0.000000 0.000000 0.000000 0.000000 10.000000 
L_front_hand02_02 0.000000 0.000000 0.000000 0.000000 0.000000 0.000000 10.000000 
L_front_hand03_02 0.000000 0.000000 0.000000 0.000000 0.000000 0.000000 10.000000 
R_forearm 0.000000 0.000000 0.000000 0.000000 0.000000 0.000000 10.000000 
R_front_hand 0.000000 0.000000 0.000000 0.000000 0.000000 0.000000 10.000000 
R_weapon_bone 0.000000 0.000000 0.000000 0.000000 0.000000 0.000000 10.000000 
R_front_hand01_01 0.000000 0.000000 0.000000 0.000000 0.000000 0.000000 10.000000 
R_front_hand02_01 0.000000 0.000000 0.000000 0.000000 0.000000 0.000000 10.000000 
R_front_hand03_01 0.000000 0.000000 0.000000 0.000000 0.000000 0.000000 10.000000 
R_front_hand01_02 0.000000 0.000000 0.000000 0.000000 0.000000 0.000000 10.000000 
R_front_hand02_02 0.000000 0.000000 0.000000 0.000000 0.000000 0.000000 10.000000 
R_front_hand03_02 0.000000 0.000000 0.000000 0.000000 0.000000 0.000000 10.000000 
null_rope01_connect 0.000000 0.000000 0.000000 0.000000 0.000000 0.000000 10.000000 
Rope1_Seg01 0.000000 0.000000 0.000000 0.000000 0.000000 0.000000 10.000000 
Rope1_Seg02 0.000000 0.000000 0.000000 0.000000 0.000000 0.000000 10.000000 
Rope1_Seg03 0.000000 0.000000 0.000000 0.000000 0.000000 0.000000 10.000000 
Rope1_Seg04 0.000000 0.000000 0.000000 0.000000 0.000000 0.000000 10.000000 
Rope1_Seg05 0.000000 0.000000 0.000000 0.000000 0.000000 0.000000 10.000000 
Rope1_Seg06 0.000000 0.000000 0.000000 0.000000 0.000000 0.000000 10.000000 
Rope1_Seg07 0.000000 0.000000 0.000000 0.000000 0.000000 0.000000 10.000000 
Rope1_Seg09 0.000000 0.000000 0.000000 0.000000 0.000000 0.000000 10.000000 
L_mid_hand01 0.000000 0.000000 0.000000 0.000000 0.000000 0.000000 10.000000 
L_mid_hand02 0.000000 0.000000 0.000000 0.000000 0.000000 0.000000 10.000000 
L_mid_hand03 0.000000 0.000000 0.000000 0.000000 0.000000 0.000000 10.000000 
null_rope02_connect 0.000000 0.000000 0.000000 0.000000 0.000000 0.000000 10.000000 
Rope2_Seg01 0.000000 0.000000 0.000000 0.000000 0.000000 0.000000 10.000000 
Rope2_Seg02 0.000000 0.000000 0.000000 0.000000 0.000000 0.000000 10.000000 
Rope2_Seg03 0.000000 0.000000 0.000000 0.000000 0.000000 0.000000 10.000000 
Rope2_Seg04 0.000000 0.000000 0.000000 0.000000 0.000000 0.000000 10.000000 
Rope2_Seg05 0.000000 0.000000 0.000000 0.000000 0.000000 0.000000 10.000000 
Rope2_Seg06 0.000000 0.000000 0.000000 0.000000 0.000000 0.000000 10.000000 
Rope2_Seg07 0.000000 0.000000 0.000000 0.000000 0.000000 0.000000 10.000000 
Rope2_Seg09 0.000000 0.000000 0.000000 0.000000 0.000000 0.000000 10.000000 
R_mid_hand01 0.000000 0.000000 0.000000 0.000000 0.000000 0.000000 10.000000 
R_mid_hand02 0.000000 0.000000 0.000000 0.000000 0.000000 0.000000 10.000000 
R_mid_hand03 0.000000 0.000000 0.000000 0.000000 0.000000 0.000000 10.000000 
spine02 0.000000 0.000000 0.000000 0.000000 0.000000 0.000000 10.000000 
spine03 0.000000 0.000000 0.000000 0.000000 0.000000 0.000000 10.000000 
pelvis 0.000000 0.000000 0.000000 0.000000 0.000000 0.000000 10.000000 
null_rope03_connect 0.000000 0.000000 0.000000 0.000000 0.000000 0.000000 10.000000 
null_rope04_connect 0.000000 0.000000 0.000000 0.000000 0.000000 0.000000 10.000000 
Rope3_Seg01 0.000000 0.000000 0.000000 0.000000 0.000000 0.000000 10.000000 
Rope3_Seg02 0.000000 0.000000 0.000000 0.000000 0.000000 0.000000 10.000000 
Rope3_Seg03 0.000000 0.000000 0.000000 0.000000 0.000000 0.000000 10.000000 
Rope3_Seg04 0.000000 0.000000 0.000000 0.000000 0.000000 0.000000 10.000000 
Rope3_Seg05 0.000000 0.000000 0.000000 0.000000 0.000000 0.000000 10.000000 
Rope3_Seg06 0.000000 0.000000 0.000000 0.000000 0.000000 0.000000 10.000000 
Rope3_Seg07 0.000000 0.000000 0.000000 0.000000 0.000000 0.000000 10.000000 
Rope3_Seg08 0.000000 0.000000 0.000000 0.000000 0.000000 0.000000 10.000000 
Rope3_Seg09 0.000000 0.000000 0.000000 0.000000 0.000000 0.000000 10.000000 
R_rear_hand01 0.000000 0.000000 0.000000 0.000000 0.000000 0.000000 10.000000 
R_rear_hand02 0.000000 0.000000 0.000000 0.000000 0.000000 0.000000 10.000000 
R_rear_hand03 0.000000 0.000000 0.000000 0.000000 0.000000 0.000000 10.000000 
Rope4_Seg01 0.000000 0.000000 0.000000 0.000000 0.000000 0.000000 10.000000 
Rope4_Seg02 0.000000 0.000000 0.000000 0.000000 0.000000 0.000000 10.000000 
Rope4_Seg03 0.000000 0.000000 0.000000 0.000000 0.000000 0.000000 10.000000 
Rope4_Seg04 0.000000 0.000000 0.000000 0.000000 0.000000 0.000000 10.000000 
Rope4_Seg05 0.000000 0.000000 0.000000 0.000000 0.000000 0.000000 10.000000 
Rope4_Seg06 0.000000 0.000000 0.000000 0.000000 0.000000 0.000000 10.000000 
Rope4_Seg07 0.000000 0.000000 0.000000 0.000000 0.000000 0.000000 10.000000 
Rope4_Seg08 0.000000 0.000000 0.000000 0.000000 0.000000 0.000000 10.000000 
Rope4_Seg09 0.000000 0.000000 0.000000 0.000000 0.000000 0.000000 10.000000 
L_rear_hand01 0.000000 0.000000 0.000000 0.000000 0.000000 0.000000 10.000000 
L_rear_hand02 0.000000 0.000000 0.000000 0.000000 0.000000 0.000000 10.000000 
L_rear_hand03 0.000000 0.000000 0.000000 0.000000 0.000000 0.000000 10.000000 
#Beginning of Data. Separated by tabs
#Fr	Tx	Ty	Tz	Rx	Ry	Rz	SF
[MASTER]
30 0.000000 0.000000 0.000000 0.001660 0.001660 0.001660 0.000000
31 0.000000 0.000000 0.000000 0.001660 0.001660 0.001660 0.000000
[root]
30 -54.711006 -2.582742 1346.973389 -87.636024 -30.529545 -87.453003 1348.086548
31 -56.986446 -2.367171 1363.249756 -87.481934 -29.758827 -87.308784 1364.442383
[chest]
30 -84.512650 -34.090519 0.000000 0.911391 -0.950834 -145.195419 91.129311
31 -84.512650 -34.090519 0.000000 0.749261 -0.824787 -147.277008 91.129311
[L_mid_tent01]
30 27.332712 22.158506 -250.129913 -6.865305 18.969414 63.481083 252.592651
31 27.327202 22.161661 -250.094589 -5.178513 22.918123 66.831078 252.557358
[R_mid_tent01]
30 23.228794 24.509907 226.238495 178.238861 -29.310917 66.161957 228.744751
31 23.228794 24.509907 226.238495 175.427261 -33.536839 69.876488 228.744751
[spine01]
30 -0.361383 -0.195265 0.000000 0.001915 0.001357 19.358889 0.410763
31 -0.361383 -0.195265 0.000000 0.001913 0.001360 19.180113 0.410763
[Bip01_Neck]
30 165.484543 71.581718 0.000119 175.896118 1.177290 24.871183 180.302734
31 165.484543 71.581718 0.000119 175.896118 1.177290 24.871183 180.302734
[L_humerus]
30 -13.983130 -135.272980 -120.471481 -178.281891 1.886863 -87.432610 181.680161
31 -13.983130 -135.272980 -120.471481 -178.502640 2.635820 -93.367058 181.680161
[R_humerus]
30 -13.983309 -135.273102 125.287651 -177.927048 -1.023230 -88.291855 184.909012
31 -13.983309 -135.273102 125.287651 -177.927048 -1.023230 -88.292076 184.909012
[weapon_bone]
30 235.964890 -300.705902 0.000000 0.000000 -89.951546 -128.212341 382.234833
31 235.964890 -300.705902 0.000000 0.000000 -89.951546 -128.212341 382.234833
[Bip01_Head]
30 102.819763 23.735601 5.410249 3.150732 3.423701 -20.839092 105.662445
31 102.819763 23.735607 5.410244 3.150732 3.423701 -20.839092 105.662453
[eye_left_bone]
30 -24.626970 125.451866 -64.772606 0.000000 -90.000000 -99.840431 143.318359
31 -24.626970 125.451866 -64.772606 0.000000 -90.000000 -99.840431 143.318359
[eye_right_bone]
30 -24.626970 125.451866 64.327362 0.000000 -89.960434 80.159386 143.117676
31 -24.626970 125.451866 64.327362 0.000000 -89.960434 80.159386 143.117676
[L_forearm]
30 322.776093 0.000000 -0.000119 0.000175 0.002341 -81.430992 322.776093
31 322.776093 0.000000 -0.000119 0.000188 0.002340 -80.830666 322.776093
[L_front_hand]
30 241.149185 -0.042021 -3.300071 -177.836868 0.685389 -99.026711 241.171753
31 241.149185 -0.042021 -3.300071 -177.841614 0.691660 -99.189148 241.171753
[L_weapon_bone]
30 156.183838 0.000000 0.000000 0.001973 0.001272 24.359188 156.183838
31 156.183838 0.000000 0.000000 0.001956 0.001298 22.883183 156.183838
[L_front_hand01_01]
30 86.095154 20.947098 -0.655860 0.405585 -0.442306 -4.620490 88.609184
31 86.095154 20.947098 -0.655860 0.405585 -0.442306 -4.620490 88.609184
[L_front_hand02_01]
30 86.935165 -11.437475 24.513514 116.959450 3.630817 1.495453 91.046425
31 86.935165 -11.437475 24.513514 116.959450 3.630818 1.495453 91.046425
[L_front_hand03_01]
30 86.637497 -14.123976 -20.424902 -118.420097 -4.656303 -0.152527 90.126129
31 86.637497 -14.123976 -20.424902 -118.420097 -4.656303 -0.152527 90.126129
[L_front_hand01_02]
30 71.020905 -0.000179 0.000030 0.001534 0.001777 -8.378850 71.020905
31 71.020905 -0.000179 0.000030 0.001534 0.001777 -8.378848 71.020905
[L_front_hand02_02]
30 71.020927 -0.000119 0.000060 0.001534 0.001777 -8.378850 71.020927
31 71.020927 -0.000119 0.000060 0.001534 0.001777 -8.378848 71.020927
[L_front_hand03_02]
30 71.020905 -0.000060 0.000060 0.001534 0.001777 -8.378850 71.020905
31 71.020905 -0.000060 0.000060 0.001534 0.001777 -8.378848 71.020905
[R_forearm]
30 322.776428 -0.000060 0.000030 0.205808 -0.048271 -77.529274 322.776428
31 322.776428 -0.000060 0.000030 0.205367 -0.050079 -76.520706 322.776428
[R_front_hand]
30 238.847015 -0.006795 2.210259 -1.692111 -0.354667 -90.578598 238.857239
31 238.847015 -0.006795 2.210259 -1.688087 -0.372494 -91.186272 238.857239
[R_weapon_bone]
30 155.664093 0.002503 -0.000030 0.003289 0.001653 -106.971542 155.664078
31 155.664093 0.002503 -0.000030 0.003305 0.001621 -105.865158 155.664078
[R_front_hand01_01]
30 87.624611 14.231146 22.918642 -116.960213 3.496675 -1.324139 91.683487
31 87.624611 14.231146 22.918642 -116.960213 3.496675 -1.324139 91.683487
[R_front_hand02_01]
30 89.356956 14.367283 -19.491137 118.419647 -4.257089 0.609827 92.579636
31 89.356956 14.367283 -19.491137 118.419647 -4.257089 0.609827 92.579636
[R_front_hand03_01]
30 87.286232 -22.307278 -0.143439 -0.387970 -0.231462 4.232001 90.091743
31 87.286232 -22.307278 -0.143439 -0.387970 -0.231462 4.232001 90.091743
[R_front_hand01_02]
30 71.020905 0.000060 0.000119 0.001777 0.001534 8.377220 71.020905
31 71.020905 0.000060 0.000119 0.001777 0.001534 8.377220 71.020905
[R_front_hand02_02]
30 71.020844 -0.000030 -0.000119 0.001777 0.001534 8.377220 71.020836
31 71.020844 -0.000030 -0.000119 0.001777 0.001534 8.377220 71.020836
[R_front_hand03_02]
30 71.020905 0.000000 0.000030 0.001777 0.001534 8.377220 71.020905
31 71.020905 0.000000 0.000030 0.001777 0.001534 8.377220 71.020905
[null_rope01_connect]
30 328.732483 0.000000 -0.000238 -149.367844 -73.641968 -154.458191 328.732483
31 328.732483 0.000000 -0.000238 -144.806412 -70.671684 -163.028183 328.732483
[Rope1_Seg01]
30 0.000000 0.000000 0.000000 119.290306 24.230480 160.803741 0.000000
31 0.000000 0.000000 0.000000 117.619003 25.896759 154.360641 0.000000
[Rope1_Seg02]
30 139.999863 -0.000179 0.000000 1.515575 -21.686142 4.381062 139.999863
31 139.999863 -0.000179 0.000000 0.168844 -22.006483 4.998724 139.999863
[Rope1_Seg03]
30 139.999924 0.000060 -0.000060 -3.609305 -30.484402 -0.276109 139.999924
31 139.999924 0.000060 -0.000060 -4.949005 -27.684483 -0.649182 139.999924
[Rope1_Seg04]
30 139.999924 -0.000060 -0.000119 -5.973865 -18.667746 11.699883 139.999924
31 139.999924 -0.000060 -0.000119 -5.037984 -16.714247 12.254641 139.999924
[Rope1_Seg05]
30 139.999832 0.000119 -0.000060 12.277924 -8.911342 23.437304 139.999832
31 139.999832 0.000119 -0.000060 9.840698 -7.978762 19.728273 139.999832
[Rope1_Seg06]
30 139.999954 0.000119 -0.000060 12.585349 -2.941522 10.219027 139.999954
31 139.999954 0.000119 -0.000060 7.529525 -3.213916 8.221885 139.999954
[Rope1_Seg07]
30 139.999985 0.000060 0.000000 12.598636 -0.522181 5.688469 139.999985
31 139.999985 0.000060 0.000000 7.453044 -1.271320 4.842125 139.999985
[Rope1_Seg09]
30 121.602913 0.000119 -0.000089 -89.793175 -1.359789 0.847147 121.602913
31 121.602913 0.000119 -0.000089 -89.793175 -1.359789 0.847147 121.602913
[L_mid_hand01]
30 103.859421 1.038730 8.195221 104.352036 0.341479 -0.444583 104.187431
31 103.859421 1.038730 8.195221 104.352036 0.341479 -0.444583 104.187431
[L_mid_hand02]
30 105.572853 -4.139662 -10.864139 -135.608444 3.905687 -3.381056 106.211075
31 105.572853 -4.139662 -10.864139 -135.608444 3.905687 -3.381056 106.211075
[L_mid_hand03]
30 104.641464 17.579376 -3.913581 -18.761518 -0.324361 2.942912 106.179977
31 104.641464 17.579376 -3.913581 -18.761515 -0.324361 2.942912 106.179977
[null_rope02_connect]
30 328.732849 0.000179 -0.000119 -121.674675 56.383148 3.615666 328.732849
31 328.732849 0.000179 -0.000119 -121.634315 51.688328 7.227438 328.732849
[Rope2_Seg01]
30 0.000076 0.000111 0.000153 -63.475025 28.419456 13.327756 0.000204
31 0.000076 0.000111 0.000153 -64.397537 31.951519 16.902069 0.000204
[Rope2_Seg02]
30 139.999741 -0.000060 -0.000119 -5.658122 -10.839297 13.799061 139.999756
31 139.999741 -0.000060 -0.000119 -4.574403 -11.972160 12.942921 139.999756
[Rope2_Seg03]
30 140.000107 0.000030 0.000000 -6.084820 -10.279968 24.822906 140.000107
31 140.000107 0.000030 0.000000 -4.494152 -10.493506 21.715336 140.000107
[Rope2_Seg04]
30 139.999802 0.000000 -0.000060 -3.297924 -28.686628 8.009570 139.999802
31 139.999802 0.000000 -0.000060 -3.591815 -29.290573 6.184416 139.999802
[Rope2_Seg05]
30 139.999985 -0.000060 0.000119 -15.311652 -28.131155 -9.901245 139.999985
31 139.999985 -0.000060 0.000119 -12.447721 -23.513296 -6.608099 139.999985
[Rope2_Seg06]
30 139.999893 -0.000030 -0.000119 -8.331560 -8.090501 -4.062292 139.999893
31 139.999893 -0.000030 -0.000119 -6.531232 -7.380819 -2.684423 139.999893
[Rope2_Seg07]
30 139.999893 0.000060 -0.000060 -5.404513 -3.840417 -2.690595 139.999893
31 139.999893 0.000060 -0.000060 -4.469938 -3.790718 -1.900621 139.999893
[Rope2_Seg09]
30 121.338966 0.000089 -0.000060 33.793236 -1.359788 -0.847141 121.338966
31 121.338966 0.000089 -0.000060 33.793236 -1.359788 -0.847141 121.338966
[R_mid_hand01]
30 104.680779 11.144459 -10.335981 -47.384258 2.963522 5.452604 105.778534
31 104.680779 11.144459 -10.335981 -47.384266 2.963523 5.452605 105.778534
[R_mid_hand02]
30 104.070427 2.443552 8.231699 75.626297 -2.250001 1.111093 104.424065
31 104.070427 2.443552 8.231699 75.626297 -2.250001 1.111093 104.424065
[R_mid_hand03]
30 106.028137 -11.221827 -5.996406 -164.381912 2.495983 -6.140520 106.788818
31 106.028137 -11.221827 -5.996406 -164.381912 2.495983 -6.140520 106.788818
[spine02]
30 129.756927 0.001550 0.000119 -1.165073 -3.908894 8.650691 129.756927
31 129.756927 0.001550 0.000119 -1.121607 -3.916645 8.028906 129.756927
[spine03]
30 78.894875 0.038336 -2.155574 -0.667743 4.518843 -17.465067 78.924324
31 78.884766 0.040099 -2.254244 -0.652366 4.496115 -17.293949 78.916977
[pelvis]
30 169.435242 0.051022 0.000000 -3.932331 -1.990584 7.025837 169.435257
31 169.435242 0.051022 0.000000 -3.749312 -1.921692 6.617077 169.435257
[null_rope03_connect]
30 -1.257226 -2.466202 137.391083 122.570778 -85.039436 -19.427574 137.418976
31 -1.257226 -2.466202 137.391083 117.681007 -85.068985 -14.286865 137.418976
[null_rope04_connect]
30 -1.259640 -2.480268 -137.844437 122.570778 -85.039436 -19.427574 137.872513
31 -1.259640 -2.480268 -137.844437 117.681007 -85.068985 -14.286865 137.872513
[Rope3_Seg01]
30 0.000059 0.000067 0.000000 -132.130920 -17.650219 -74.897003 0.000090
31 0.000060 0.000065 0.000000 -133.269363 -22.249884 -73.410461 0.000088
[Rope3_Seg02]
30 139.999924 -0.000119 0.000060 -30.884422 -12.058350 -69.170502 139.999924
31 139.999924 -0.000119 0.000060 -11.144845 -3.712718 -41.364700 139.999924
[Rope3_Seg03]
30 139.999924 -0.000119 0.000119 -115.969513 25.804562 -72.145813 139.999924
31 139.999924 -0.000119 0.000119 -112.642014 6.918939 -87.424011 139.999924
[Rope3_Seg04]
30 139.999924 0.000119 0.000000 -0.589701 9.124393 7.909285 139.999924
31 139.999924 0.000119 0.000000 -3.774514 17.299215 7.672971 139.999924
[Rope3_Seg05]
30 139.999924 -0.000238 0.000060 -0.048675 3.600485 3.122799 139.999924
31 139.999924 -0.000238 0.000060 -0.648834 7.378339 3.984952 139.999924
[Rope3_Seg06]
30 139.999893 -0.000119 -0.000060 0.330205 1.906361 1.609839 139.999893
31 139.999893 -0.000119 -0.000060 0.186286 3.080801 1.713615 139.999893
[Rope3_Seg07]
30 139.999771 0.000060 -0.000119 0.459009 1.293208 1.080147 139.999771
31 139.999771 0.000060 -0.000119 0.396303 1.971453 1.086818 139.999771
[Rope3_Seg08]
30 139.999985 -0.000060 0.000000 0.510796 0.804885 0.663048 139.999985
31 139.999985 -0.000060 0.000000 0.483181 1.190914 0.644718 139.999985
[Rope3_Seg09]
30 90.185997 -0.000179 -0.000060 89.793228 -1.359877 -0.847183 90.185997
31 90.185997 -0.000179 -0.000060 89.793228 -1.359877 -0.847183 90.185997
[R_rear_hand01]
30 103.366196 -6.073594 -10.757982 -156.049316 6.070419 -2.795869 104.101845
31 103.366196 -6.073594 -10.757982 -156.049316 6.070419 -2.795869 104.101845
[R_rear_hand02]
30 100.509819 12.039542 -7.992327 -38.708435 1.958051 5.461186 101.543350
31 100.509819 12.039542 -7.992327 -38.708435 1.958051 5.461186 101.543350
[R_rear_hand03]
30 101.539970 5.215704 5.435467 84.307625 -2.361032 4.099037 101.819031
31 101.539970 5.215704 5.435467 84.307625 -2.361032 4.099037 101.819031
[Rope4_Seg01]
30 0.000000 -0.000030 -0.000067 47.135620 4.348505 -92.799561 0.000074
31 0.000000 -0.000034 -0.000065 46.199181 -2.357253 -94.362595 0.000073
[Rope4_Seg02]
30 139.999985 0.000060 0.000119 127.898628 -81.890297 -93.146179 139.999985
31 139.999985 0.000060 0.000119 39.161129 -78.383308 -11.432065 139.999985
[Rope4_Seg03]
30 139.999924 0.000000 -0.000238 78.541183 -45.156971 39.858158 139.999924
31 139.999924 0.000000 -0.000238 73.152702 -49.202049 35.983494 139.999924
[Rope4_Seg04]
30 139.999985 0.000000 0.000119 9.079669 9.868622 19.650385 139.999985
31 139.999985 0.000000 0.000119 13.043522 8.420683 24.387875 139.999985
[Rope4_Seg05]
30 139.999802 -0.000060 -0.000119 1.598859 4.677388 6.565286 139.999802
31 139.999802 -0.000060 -0.000119 2.826452 6.147205 10.343214 139.999802
[Rope4_Seg06]
30 139.999924 0.000000 0.000060 0.562095 2.322343 2.991352 139.999924
31 139.999924 0.000000 0.000060 0.710950 2.718628 4.021654 139.999924
[Rope4_Seg07]
30 139.999802 0.000000 0.000000 0.364544 1.548654 1.960421 139.999802
31 139.999802 0.000000 0.000000 0.402021 1.763810 2.545530 139.999802
[Rope4_Seg08]
30 139.999924 0.000000 0.000119 -1.338720 0.955403 1.192448 139.999924
31 139.999924 0.000000 0.000119 -1.334638 1.063056 1.517718 139.999924
[Rope4_Seg09]
30 90.185791 0.000060 0.000060 -135.617828 2.228885 0.850567 90.185791
31 90.185791 0.000060 0.000060 -135.617828 2.228885 0.850567 90.185791
[L_rear_hand01]
30 101.696655 -8.392275 -7.654577 -38.746338 0.246096 177.290207 102.329041
31 101.696655 -8.392275 -7.654577 -38.746349 0.246096 177.290207 102.329041
[L_rear_hand02]
30 102.726799 -1.568258 5.773216 84.315163 -1.142796 176.247437 102.900848
31 102.726799 -1.568258 5.773216 84.315163 -1.142796 176.247437 102.900848
[L_rear_hand03]
30 104.552910 9.721220 -10.420293 -155.747955 -4.630845 179.564758 105.519653
31 104.552910 9.721220 -10.420293 -155.747955 -4.630845 179.564758 105.519653
